<?xml version="1.0" encoding="utf-8"?>
<!-- Generator: Adobe Illustrator 26.0.0, SVG Export Plug-In . SVG Version: 6.00 Build 0)  -->
<svg version="1.1" id="Layer_1" xmlns="http://www.w3.org/2000/svg" xmlns:xlink="http://www.w3.org/1999/xlink" x="0px" y="0px"
	 viewBox="0 0 1000 665" style="enable-background:new 0 0 1000 665;" xml:space="preserve">
<style type="text/css">
	.st0{fill:#FFFFFF;}
	.st1{fill:#2B5155;}
</style>
<rect x="0" class="st0" width="1000" height="665"/>
<g>
	<path class="st1" d="M589.95,341.19c1.07,0.32,2.2,0.5,3.3,0.31c0.9-0.16,1.85-0.37,2.56-0.92c0.23-0.18,0.32-0.51,0.25-0.79
		c-0.58-2.29-2.31-4.27-4.51-5.12c-2.15-0.83-4.69-0.57-6.64,0.66c-0.32,0.2-0.45,0.63-0.3,0.97
		C585.59,338.53,587.65,340.5,589.95,341.19z"/>
	<path class="st1" d="M448.36,365.64c6.61-7.02,13.45-14.25,21.45-19.76l-0.34,3.6c-0.05,0.54,0.35,1.02,0.89,1.08
		c0.03,0,0.06,0,0.09,0c0.5,0,0.93-0.38,0.98-0.89l0.65-6.97l-6.9-1.16c-0.52-0.08-1.05,0.27-1.14,0.81s0.27,1.05,0.81,1.14
		l3.97,0.67c-8.24,5.64-15.2,13-21.92,20.14c-2.48,2.64-5.05,5.36-7.63,7.95c-7.85,7.86-20,18.53-34.83,20.47
		c-0.54,0.07-0.92,0.57-0.85,1.11c0.07,0.5,0.49,0.86,0.98,0.86c0.04,0,0.09,0,0.13-0.01c15.43-2.03,27.92-12.98,35.97-21.04
		C443.29,371.02,445.87,368.29,448.36,365.64z"/>
	<path class="st1" d="M372.83,391.25c15.1-0.28,31.2-5.11,46.63-14.03c12.32-7.13,24.29-16.64,38.82-30.84
		c1.15-1.12,2.3-2.26,3.44-3.39c6.64-6.55,13.5-13.33,21.34-18.53c11.03-7.31,23.18-10.92,32.52-9.64c0.09,0.01,0.17-0.01,0.26-0.02
		c4.25,1.22,8.67,1.87,12.96,1.87c3.28,0,6.47-0.38,9.46-1.17c0.53-0.14,0.84-0.68,0.7-1.21c-0.14-0.53-0.67-0.85-1.21-0.7
		c-11.87,3.14-27.26-0.57-36.86-8.67l3.03-0.09c0.54-0.02,0.97-0.47,0.96-1.02c-0.02-0.54-0.4-0.94-1.02-0.96l-5.45,0.17
		c0,0,0,0,0,0l-1.06,0.03l0.52,6.49c0.04,0.52,0.47,0.91,0.98,0.91c0.03,0,0.05,0,0.08,0c0.54-0.04,0.95-0.52,0.9-1.06l-0.24-3.05
		c2.99,2.54,6.51,4.65,10.32,6.31c-8.68,0.45-18.72,4.05-27.96,10.17c-8,5.3-14.93,12.15-21.63,18.77
		c-1.15,1.13-2.29,2.26-3.44,3.38c-14.41,14.08-26.26,23.5-38.43,30.54c-15.24,8.82-31.13,13.57-45.99,13.78l2.47-3.09
		c0.34-0.43,0.27-1.05-0.16-1.39c-0.42-0.34-1.04-0.27-1.39,0.16l-4.36,5.47l5.13,4.76c0.19,0.18,0.43,0.26,0.67,0.26
		c0.26,0,0.53-0.11,0.72-0.32c0.37-0.4,0.35-1.02-0.05-1.4L372.83,391.25z"/>
	<path class="st1" d="M629.66,198.33l-6.32,1.58c-0.53,0.13-0.85,0.67-0.72,1.2c0.13,0.53,0.66,0.85,1.2,0.72l2.83-0.71
		c-16.66,28.47-27.48,58.43-32.15,89.09c-0.24,1.57-0.54,3.14-0.88,4.68c-2.05,9.05-5.82,16.61-11.22,22.47
		c-1.91,2.07-4.31,3.78-6.63,5.43c-2.86,2.03-5.78,4.12-7.99,6.97c-0.03,0.04-0.07,0.08-0.1,0.13c-0.57,0.75-1.1,1.54-1.56,2.41
		c-0.25,0.48-0.07,1.08,0.41,1.33c0.15,0.08,0.3,0.11,0.46,0.11c0.35,0,0.7-0.19,0.87-0.53c0.37-0.71,0.8-1.35,1.26-1.97
		c2.46-0.61,5.6-0.37,8.1,0.66c0.12,0.05,0.25,0.07,0.38,0.07c0.39,0,0.76-0.23,0.91-0.61c0.21-0.51-0.03-1.08-0.54-1.29
		c-1.68-0.69-3.57-1.04-5.42-1.11c0.81-0.33,1.64-0.58,2.51-0.69c2.21-0.29,4.52,0.13,6.49,1.18c0.48,0.26,1.08,0.08,1.34-0.41
		c0.26-0.48,0.07-1.08-0.41-1.34c-2.33-1.24-5.06-1.73-7.68-1.4c-0.26,0.03-0.51,0.11-0.76,0.16c0.92-0.7,1.88-1.38,2.85-2.08
		c0.38-0.27,0.77-0.55,1.15-0.82c9.3,0.74,17.75,6.52,20.61,14.16c0.93,2.47,1.52,5.24,1.8,8.46l0.04,0.51l0.45,0.26
		c1.78,1.03,3.49,2.21,5.11,3.54c-1.77-0.18-3.51-0.31-5.22-0.45c-1.19-0.09-2.38-0.19-3.59-0.29l-0.38-0.03l-0.3,0.24
		c-2.95,2.26-6.21,3.82-9.44,4.5c-2.26,0.49-4.76,0.5-7.64,0.03c-2.31-0.38-4.63-1.03-6.87-1.66l-1.06-0.29
		c-0.62-0.17-1.24-0.36-1.86-0.55c-2.17-0.66-4.41-1.35-6.8-1.38c-3.09,0.02-5.46,1.69-7.66,3.36l-0.85,0.64
		c-2.13,1.58-4.78,2.81-7.88,3.65c-5.7,1.56-12.02,1.44-18.29-0.36c-1.56-0.43-3.16-1-4.88-1.74c-1.88-0.84-3.75-1.84-5.56-2.8
		c-2.65-1.41-5.38-2.88-8.29-3.92c-1.74-0.62-3.45-1.01-5.11-1.22c-0.07-0.01-0.14-0.03-0.22-0.02c-3.93-0.46-7.54,0.2-10.31,2.02
		c-0.46,0.3-0.58,0.91-0.29,1.36c0.3,0.46,0.91,0.58,1.36,0.29c1.42-0.93,3.12-1.49,4.98-1.73c-7.27,4.07-12.4,10.51-15.55,15.57
		c-4.1,6.62-6.97,13.97-9.75,21.08c-0.57,1.46-1.13,2.91-1.71,4.36c-6.82,17.23-13.87,30.38-22.16,41.38
		c-9.95,13.19-22.01,23.18-34.9,29.02l0.98-3.51c0.15-0.52-0.16-1.07-0.68-1.22c-0.53-0.15-1.07,0.16-1.22,0.68l-1.89,6.74
		l6.58,2.38c0.11,0.04,0.22,0.06,0.34,0.06c0.4,0,0.78-0.25,0.93-0.65c0.19-0.51-0.08-1.08-0.59-1.26l-3.76-1.36
		c13.24-5.97,25.6-16.2,35.79-29.69c8.4-11.14,15.53-24.44,22.42-41.84c0.58-1.45,1.15-2.91,1.72-4.37
		c2.74-7.03,5.58-14.3,9.58-20.76c3.5-5.63,9.51-13.04,18.28-16.56c1.46,0.2,2.96,0.55,4.5,1.1c2.77,0.99,5.44,2.42,8.02,3.8
		c1.84,0.98,3.74,2,5.7,2.87c1.81,0.78,3.5,1.39,5.13,1.84c3.53,1.01,7.08,1.52,10.55,1.52c3.02,0,5.98-0.39,8.8-1.15
		c3.33-0.91,6.21-2.24,8.54-3.97l0.87-0.66c2.03-1.54,3.9-2.97,6.45-2.96c2.1,0.03,4.11,0.64,6.25,1.29
		c0.64,0.19,1.27,0.39,1.91,0.57l1.05,0.29c2.29,0.64,4.67,1.3,7.09,1.7c3.13,0.51,5.88,0.5,8.37-0.05
		c3.39-0.71,6.81-2.31,9.92-4.63c1.09,0.09,2.16,0.18,3.23,0.26c2.8,0.22,5.44,0.43,8.22,0.78l2.95,0.38l-2.14-2.07
		c-2.25-2.17-4.71-4.05-7.33-5.61c-0.31-3.19-0.93-5.97-1.87-8.48c-2.89-7.73-10.98-13.71-20.16-15.17c1.24-0.97,2.43-2,3.5-3.16
		c5.63-6.11,9.56-13.98,11.69-23.37c0.36-1.59,0.67-3.21,0.91-4.82c4.64-30.43,15.39-60.18,31.94-88.45l0.61,3.05
		c0.09,0.47,0.51,0.79,0.97,0.79c0.07,0,0.13-0.01,0.19-0.02c0.54-0.11,0.88-0.63,0.77-1.16L629.66,198.33z"/>
	<path class="st1" d="M535.67,286.72c0.03,0,0.05,0,0.08,0c0.54-0.04,0.95-0.52,0.9-1.06l-0.21-2.7
		c4.67,5.19,10.81,9.12,17.49,11.11c0.09,0.03,0.19,0.04,0.28,0.04c0.43,0,0.82-0.28,0.95-0.71c0.15-0.52-0.14-1.07-0.67-1.23
		c-6.52-1.95-12.5-5.84-16.97-10.98l3.22-0.1c0.54-0.02,0.97-0.47,0.96-1.02c-0.02-0.54-0.38-0.94-1.02-0.96l-6.51,0.2l0.52,6.49
		C534.73,286.33,535.16,286.72,535.67,286.72z"/>
	<path class="st1" d="M518.18,298.97c0.03,0,0.05,0,0.08,0c0.54-0.04,0.95-0.52,0.9-1.06l-0.24-2.98c7.75,5.7,17.27,8.84,26.89,8.84
		c0.58-0.01,1.09-0.41,1.09-0.99c0-0.55-0.44-0.99-0.99-0.99h0c-0.03,0-0.07,0-0.1,0c-9.14,0-18.18-2.97-25.57-8.35l3-0.09
		c0.54-0.02,0.97-0.47,0.96-1.02c-0.02-0.54-0.45-0.96-0.99-0.96c-0.01,0-0.02,0-0.03,0l-6.51,0.2l0.52,6.49
		C517.24,298.57,517.67,298.97,518.18,298.97z"/>
	<path class="st1" d="M544.74,328.74c0.14,0.08,0.3,0.11,0.45,0.11c0.36,0,0.7-0.19,0.88-0.53l2.99-5.78l-5.92-2.71
		c-0.49-0.22-1.08-0.01-1.31,0.49c-0.23,0.5-0.01,1.08,0.49,1.31l2.74,1.25c-3.86,1.58-8.35,1.19-12.66,0.48l-1.62-0.27
		c-4.28-0.73-8.72-1.49-13.06-0.51c-6.52,1.47-11.46,6.47-15.82,11.66l-1.07,1.28c-3.72,4.46-7.57,9.08-12.74,11.45
		c-0.5,0.23-0.71,0.81-0.48,1.31c0.17,0.36,0.52,0.57,0.9,0.57c0.14,0,0.28-0.03,0.41-0.09c5.57-2.56,9.57-7.35,13.43-11.98
		l1.06-1.27c4.14-4.92,8.79-9.67,14.74-11c3.97-0.89,8.2-0.17,12.29,0.52l1.63,0.27c4.56,0.75,9.34,1.15,13.61-0.55l-1.38,2.66
		C544.06,327.9,544.25,328.49,544.74,328.74z"/>
	<path class="st1" d="M438.87,435.39c-4.33,3.98-9.23,7.44-13.96,10.8c-0.45,0.32-0.55,0.93-0.24,1.38c0.19,0.27,0.5,0.42,0.81,0.42
		c0.2,0,0.4-0.06,0.57-0.18c4.79-3.39,9.73-6.89,14.16-10.96c7.66-7.03,14.18-16.04,19.96-27.56c4.04-8.06,7.28-16.34,10.89-26.28
		c0.44-1.22,0.87-2.43,1.29-3.65c2.22-6.36,4.34-12.4,8.57-17.41l0,3.54c0,0.55,0.44,0.99,0.99,0.99c0.55,0,0.99-0.44,0.99-0.99l0-7
		l-6.98-0.51c-0.48-0.04-1.02,0.37-1.06,0.91c-0.04,0.54,0.37,1.02,0.91,1.06l4.04,0.29c-4.74,5.41-7.08,12.03-9.32,18.46
		c-0.42,1.21-0.84,2.42-1.28,3.62c-3.59,9.88-6.8,18.1-10.8,26.07C452.73,419.7,446.34,428.53,438.87,435.39z"/>
	<path class="st1" d="M465.5,366.42c-2.25,8.53-7.27,17.01-14.13,23.9c-0.38,0.39-0.38,1.01,0,1.4c0.19,0.19,0.44,0.29,0.7,0.29
		c0.25,0,0.51-0.1,0.7-0.29c7.1-7.13,12.3-15.93,14.64-24.79c0.14-0.53-0.18-1.07-0.7-1.21
		C466.18,365.58,465.64,365.89,465.5,366.42z"/>
	<path class="st1" d="M469,358.22c0.43-0.34,0.51-0.95,0.18-1.39c-0.34-0.43-0.95-0.51-1.39-0.18c-4.31,3.34-6.79,7.72-9.2,11.96
		c-2.36,4.15-4.58,8.07-8.38,10.98c-0.43,0.33-0.51,0.95-0.19,1.38c0.19,0.25,0.49,0.39,0.78,0.39c0.21,0,0.42-0.07,0.6-0.2
		c4.12-3.16,6.55-7.44,8.9-11.58C462.61,365.52,465,361.32,469,358.22z"/>
	<path class="st1" d="M581.02,272.18c0.15,0.08,0.31,0.12,0.47,0.12c0.35,0,0.69-0.19,0.87-0.51c5.26-9.63,7.8-20.56,10.26-31.14
		c2.76-11.86,5.64-24.1,12.36-34.22l0.67,3.38c0.09,0.47,0.51,0.79,0.97,0.79c0.07,0,0.13-0.01,0.19-0.02
		c0.53-0.11,0.88-0.63,0.77-1.16l-1.27-6.39l-6.31,1.58c-0.53,0.13-0.85,0.67-0.72,1.2c0.13,0.53,0.67,0.85,1.2,0.72l2.5-0.63
		c-6.65,10.3-9.53,22.48-12.28,34.3c-2.43,10.45-4.94,21.25-10.07,30.64C580.37,271.31,580.54,271.91,581.02,272.18z"/>
	<path class="st1" d="M565.25,283.19c0.12,0.05,0.24,0.07,0.36,0.07c0.4,0,0.77-0.24,0.92-0.63c2.96-7.63,3.15-15.96,3.33-24.02
		l0.06-2.4c0.27-10.37,1.73-18.28,4.45-24.08l0.53,2.65c0.09,0.47,0.51,0.79,0.97,0.79c0.07,0,0.13-0.01,0.19-0.02
		c0.54-0.11,0.88-0.63,0.77-1.16l-1.27-6.39l-1,0.25c0,0-0.01,0-0.01,0l-5.31,1.33c-0.53,0.13-0.85,0.67-0.72,1.2
		c0.13,0.53,0.66,0.85,1.2,0.72l3.16-0.79c-3.02,6.12-4.65,14.46-4.94,25.45l-0.06,2.4c-0.18,7.89-0.36,16.04-3.2,23.35
		C564.49,282.42,564.74,282.99,565.25,283.19z"/>
</g>
</svg>
